<?xml version="1.0" encoding="UTF-8"?> <svg xmlns="http://www.w3.org/2000/svg" id="Layer_5" data-name="Layer 5" width="40" height="40" viewBox="0 0 40 40"> <title>RecognitionBadges_TopRanked</title> <circle cx="20" cy="20" r="19.82" fill="#683043"></circle> <path d="M25.54,18.38h0a5.73,5.73,0,0,1-4.3,5.54v5h2.86a0.48,0.48,0,1,1,0,1H15.52a0.48,0.48,0,1,1,0-1h2.86v-5a5.73,5.73,0,0,1-4.3-5.54h0A3.34,3.34,0,0,1,10.74,15v-1a0.48,0.48,0,0,1,.48-0.48h2.86V13.12a1.43,1.43,0,0,0-1.43-1.43h0a0.48,0.48,0,0,1,0-1H27a0.48,0.48,0,0,1,0,1h0a1.43,1.43,0,0,0-1.43,1.43h0V13.6h2.86a0.48,0.48,0,0,1,.48.48v1A3.34,3.34,0,0,1,25.54,18.38ZM11.7,14.56V15a2.39,2.39,0,0,0,2.39,2.39V14.56H11.7Zm16.23,0H25.54v2.86A2.39,2.39,0,0,0,27.93,15V14.56ZM14.08,28.17H25.54c0.26,0,.48.62,0.48,1.37s-0.21,1.37-.48,1.37H14.08c-0.26,0-.48-0.61-0.48-1.37S13.82,28.17,14.08,28.17Z" fill="#fff"></path> </svg> 