<?xml version="1.0" encoding="UTF-8"?>
<svg width="188px" height="85px" viewBox="0 0 188 85" version="1.1" xmlns="http://www.w3.org/2000/svg" xmlns:xlink="http://www.w3.org/1999/xlink">
    <!-- Generator: Sketch 61.2 (89653) - https://sketch.com -->
    <title>donate-btn-currencies-alt</title>
    <desc>Created with Sketch.</desc>
    <defs>
        <rect id="path-1" x="0" y="0" width="188" height="50" rx="4"></rect>
        <path d="M9.5,19 C14.7467051,19 19,14.7467051 19,9.5 C19,4.25329488 14.7467051,0 9.5,0 C4.25329488,0 0,4.25329488 0,9.5 C0,14.7467051 4.25329488,19 9.5,19 Z" id="path-3"></path>
        <path d="M9.5,19 C14.7467051,19 19,14.7467051 19,9.5 C19,4.25329488 14.7467051,0 9.5,0 C4.25329488,0 0,4.25329488 0,9.5 C0,14.7467051 4.25329488,19 9.5,19 Z" id="path-5"></path>
        <path d="M9.5,19 C14.7467051,19 19,14.7467051 19,9.5 C19,4.25329488 14.7467051,0 9.5,0 C4.25329488,0 0,4.25329488 0,9.5 C0,14.7467051 4.25329488,19 9.5,19 Z" id="path-7"></path>
        <path d="M9.5,19 C14.7467051,19 19,14.7467051 19,9.5 C19,4.25329488 14.7467051,0 9.5,0 C4.25329488,0 0,4.25329488 0,9.5 C0,14.7467051 4.25329488,19 9.5,19 Z" id="path-9"></path>
    </defs>
    <g id="Payment-Button" stroke="none" stroke-width="1" fill="none" fill-rule="evenodd">
        <g id="Button-Patterns" transform="translate(-1099.000000, -570.000000)">
            <g id="Button/payment/pay-btn-(v3)" transform="translate(1099.000000, 570.000000)">
                <g id="Button/payment/donate-btn">
                    <g id="Group">
                        <g id="bg">
                            <mask id="mask-2" fill="white">
                                <use xlink:href="#path-1"></use>
                            </mask>
                            <use id="shape" fill="#1A3B8B" xlink:href="#path-1"></use>
                        </g>
                        <g id="Button/payment/donate-btn-text" transform="translate(31.000000, 12.000000)">
                            <g id="button/Large/bp-button-pay" transform="translate(0.015625, 1.371429)">
                                <g id="Mask">
                                    <g id="Pay-with-Clipped" transform="translate(0.000000, 0.769231)">
                                        <g id="Logo/bitpay-logo-white" transform="translate(63.000000, 0.230769)" fill="#FFFFFF">
                                            <g id="Group">
                                                <path d="M60.9703132,5.30430676 L57.7998196,5.30430676 L55.9651176,13.3782674 L55.7076156,14.4861289 C55.530583,14.5364863 55.3535503,14.5868436 55.1765177,14.6204152 C54.8546401,14.6875583 54.5166687,14.7211298 54.1626035,14.7211298 C53.7602565,14.7211298 53.438379,14.6539867 53.1969709,14.5364863 C52.9716566,14.4189858 52.7946239,14.251128 52.6980607,14.016127 C52.6014974,13.7979119 52.5693097,13.5293394 52.5854035,13.2271953 C52.6014974,12.9250513 52.6658729,12.5893357 52.7463423,12.2536201 L53.7119749,8.05717483 L54.3396361,5.2707352 L51.1047669,5.2707352 L49.6402241,11.7164751 C49.4631915,12.488621 49.3666282,13.2271953 49.3344405,13.9321981 C49.3022527,14.6372009 49.4149099,15.2414891 49.6402241,15.7954198 C49.8655384,16.3325648 50.2678853,16.7522093 50.8150771,17.0711392 C51.3622689,17.390069 52.1508689,17.541141 53.1486892,17.541141 C53.8407259,17.541141 54.4522932,17.4739979 54.9672973,17.3564974 C54.9833912,17.3564974 55.0155789,17.3397117 55.0316728,17.3397117 L55.0316728,17.3397117 C54.8868279,18.0111429 54.5971381,18.5482879 54.1465096,18.9679324 C53.6797872,19.3875769 53.0038443,19.6057921 52.1025872,19.6057921 C51.7163342,19.6057921 51.3622689,19.5890063 51.0403914,19.538649 L50.4127302,22.2747313 C50.831171,22.3250886 51.2978934,22.3586602 51.8128975,22.3586602 C52.7785301,22.3586602 53.6154116,22.2411597 54.3396361,22.0229445 C55.0638605,21.7879436 55.6754278,21.452228 56.2065258,20.9822261 C56.7215298,20.5122243 57.1560645,19.9247219 57.5101298,19.2365049 C57.8641951,18.5315021 58.137791,17.7089988 58.3470114,16.7354236 L60.5357786,7.13395688 L60.5357786,7.13395688 L60.9703132,5.30430676 L60.9703132,5.30430676 Z" id="y_2_"></path>
                                                <path d="M47.6928651,12.2032627 C47.4997386,13.0425518 47.435363,13.8986266 47.5158324,14.7379156 C47.5963018,15.5939905 47.9181793,16.8864956 48.223963,17.541141 L45.1661264,17.541141 C44.7959673,16.8864956 44.8120612,16.5675657 44.7315918,16.3661364 C44.3292449,16.701852 43.8947102,16.9872103 43.4118939,17.2054254 C42.9290776,17.4236406 42.3979797,17.541141 41.7864124,17.541141 C41.0782818,17.541141 40.4667145,17.4068548 39.9678043,17.1550681 C39.4688941,16.9032814 39.0504534,16.55078 38.7285758,16.1143497 C38.4066983,15.6779194 38.181384,15.1743459 38.0365391,14.5868436 C37.8916942,13.9993413 37.8273187,13.3782674 37.8273187,12.7068361 C37.8273187,11.6829035 38.0043514,10.726114 38.3423228,9.81968182 C38.6963881,8.91324966 39.1792044,8.12431795 39.7907717,7.45288672 C40.402339,6.78145548 41.8990695,5.28752098 44.3453387,5.28752098 L49.2539711,5.28752098 L47.6928651,12.2032627 L47.6928651,12.2032627 Z M45.4558162,8.09074639 C43.9751796,8.09074639 43.7015837,8.09074639 43.0900164,8.40967623 C42.6554817,8.64467716 42.3014164,8.99717856 41.9956328,9.4000373 C41.6898491,9.80289604 41.4323471,10.2728979 41.2553144,10.8100429 C41.0782818,11.3471879 40.9817185,11.9011187 40.9817185,12.4718352 C40.9817185,13.176838 41.0943757,13.7475546 41.3196899,14.1671991 C41.5450042,14.5868436 41.963445,14.788273 42.5750123,14.788273 C42.8968899,14.788273 43.2026735,14.7211298 43.4601755,14.5868436 C43.7176776,14.4525574 44.0073673,14.2343422 44.2970571,13.9154124 C44.3292449,13.5461252 44.3775265,13.1600522 44.441902,12.7571935 C44.5062775,12.3543347 44.5867469,11.9682618 44.6511224,11.6325462 L45.4558162,8.09074639 L45.4558162,8.09074639 Z" id="a_2_"></path>
                                                <path d="M36.9582494,10.1553974 C36.9582494,11.2464732 36.7812168,12.2368343 36.4432454,13.1432664 C36.1052739,14.0496986 35.6224576,14.8218445 35.0108903,15.47649 C34.399323,16.1311354 33.6750986,16.6347089 32.8221231,17.003996 C31.9691477,17.3732832 31.0517967,17.5579268 30.0539764,17.5579268 C29.5711601,17.5579268 29.0883438,17.5075695 28.5894336,17.4236406 L27.623801,21.4690138 L24.4533073,21.4690138 L28.138805,5.32109254 L32.3714946,5.32109254 C33.1761884,5.32109254 33.8682251,5.45537879 34.4315108,5.7071655 C35.0108903,5.95895222 35.4776128,6.31145362 35.8638658,6.74788392 C36.234025,7.18431422 36.5076209,7.70467343 36.6846535,8.29217576 C36.87778,8.86289231 36.9582494,9.48396621 36.9582494,10.1553974 L36.9582494,10.1553974 Z M29.184907,14.7379156 C29.4263152,14.8050588 29.7320988,14.8218445 30.0861641,14.8218445 C30.6494498,14.8218445 31.14836,14.7211298 31.6150824,14.5029147 C32.0657109,14.2846995 32.4680578,13.9825555 32.7899354,13.5964825 C33.1118129,13.2104096 33.353221,12.7404077 33.5463476,12.2032627 C33.7233802,11.6661177 33.8199435,11.0618296 33.8199435,10.4071842 C33.8199435,9.76932448 33.6911925,9.21539371 33.4175966,8.77896341 C33.1440007,8.32574732 32.6772782,8.09074639 32.0013354,8.09074639 L30.746013,8.09074639 L29.184907,14.7379156 L29.184907,14.7379156 Z" id="p_2_"></path>
                                                <path d="M22.5220421,14.7379156 C22.1196952,14.7379156 21.7978177,14.6707725 21.5564095,14.553272 C21.3310953,14.4357716 21.1540626,14.2679138 21.0574994,14.0329128 C20.9609361,13.8146977 20.9287483,13.5461252 20.9448422,13.2439811 C20.9609361,12.9418371 21.0253116,12.6061215 21.105781,12.2704058 L22.0714136,8.07396061 L25.6764419,8.07396061 L26.3362909,5.28752098 L22.7151686,5.28752098 L23.5520502,1.76250699 L20.1723361,2.31643776 L18.0318506,11.7500466 C17.8548179,12.5221925 17.7582547,13.2607669 17.7260669,13.9657697 C17.6938791,14.6707725 17.8065363,15.2750606 18.0318506,15.8289914 C18.2571648,16.3661364 18.6595117,16.7857809 19.2067035,17.1047107 C19.7538954,17.4236406 20.5424953,17.5747126 21.5403156,17.5747126 C22.2323523,17.5747126 22.8439197,17.5075695 23.3589237,17.390069 C23.4072053,17.3732832 23.4876747,17.3564974 23.5359563,17.3397117 L24.1958053,14.4693431 C23.970491,14.553272 23.7451767,14.6036294 23.5359563,14.6372009 C23.2140788,14.7043441 22.8761074,14.7379156 22.5220421,14.7379156 L22.5220421,14.7379156 Z" id="t_2_"></path>
                                                <polygon id="i_bottom_6_" points="14.45901 5.30430676 11.6586754 17.5579268 14.8291691 17.5579268 17.6134098 5.30430676"></polygon>
                                                <polygon id="i_top_2_" points="17.9513812 3.89430117 18.4341975 1.76250699 15.2637038 1.76250699 14.7808875 3.89430117"></polygon>
                                                <path d="M7.44207978,5.32109254 C8.11802259,5.32109254 8.71349603,5.45537879 9.2124062,5.7071655 C9.71131637,5.95895222 10.1136633,6.29466784 10.4516347,6.73109814 C10.7735122,7.16752844 11.0149204,7.67110187 11.1758591,8.24181842 C11.3367979,8.81253497 11.4172673,9.43360886 11.4172673,10.1050401 C11.4172673,11.1289727 11.2402346,12.0857622 10.8700755,13.0089802 C10.4999163,13.9154124 10.0171,14.7211298 9.38943884,15.3925611 C8.76177765,16.0639923 8.02145933,16.6011373 7.16848387,16.9872103 C6.31550842,17.3732832 5.39815745,17.5747126 4.40033711,17.5747126 C4.27158609,17.5747126 4.04627182,17.5747126 3.72439429,17.5579268 C3.40251676,17.5579268 3.0323576,17.5243553 2.63001068,17.4572121 C2.21156989,17.390069 1.77703522,17.3061401 1.32640668,17.1886396 C0.85968426,17.0711392 0.425149593,16.9032814 0.022802679,16.701852 L3.70830041,0.55393077 L7.00754511,0.0167857809 L5.70394111,5.74073707 C5.99363089,5.60645082 6.25113291,5.50573613 6.54082269,5.43859301 C6.81441859,5.35466411 7.12020225,5.32109254 7.44207978,5.32109254 L7.44207978,5.32109254 Z M4.67393301,14.8218445 C5.17284318,14.8218445 5.6395656,14.7043441 6.07410027,14.4357716 C6.50863494,14.1839849 6.89488797,13.8482692 7.2167655,13.4286247 C7.53864304,13.0089802 7.79614506,12.5221925 7.9731777,12.0018333 C8.15021035,11.4646884 8.2467736,10.9107576 8.2467736,10.340041 C8.2467736,9.63503823 8.13411647,9.08110747 7.9088022,8.67824872 C7.68348792,8.27538998 7.2167655,8.09074639 6.60519819,8.09074639 C6.41207168,8.09074639 6.20285128,8.10753217 5.88097375,8.19146108 C5.55909622,8.2586042 5.28550032,8.42646201 5.02799829,8.66146294 L3.64392491,14.7547014 C4.0623657,14.8218445 4.19111671,14.8386303 4.30377385,14.8386303 C4.38424323,14.8218445 4.51299424,14.8218445 4.67393301,14.8218445 L4.67393301,14.8218445 Z" id="b_2_"></path>
                                            </g>
                                        </g>
                                        <path d="M2.23086727,7.43504054 C2.92202344,7.43504054 3.5308469,7.5863969 4.05735592,7.88911408 C4.58386493,8.19183131 4.99276271,8.62414855 5.2840615,9.18607868 C5.57536034,9.74800886 5.72100756,10.4041885 5.72100756,11.1546371 L5.72100756,11.6331817 C5.72100756,12.3908811 5.57536034,13.0497797 5.2840615,13.6098972 C4.99276271,14.1700146 4.57753243,14.6005192 4.03835828,14.9014238 C3.49918408,15.2023283 2.86593531,15.3527783 2.13859296,15.3527783 L0,15.3527783 L0,7.43504054 L2.23086727,7.43504054 Z M4.67885058,11.1437611 C4.67885058,10.541952 4.58386324,10.0280655 4.39388579,9.60208621 C4.2039083,9.17610687 3.92527885,8.85073608 3.55798904,8.62596403 C3.19069924,8.40119193 2.74832974,8.28880759 2.23086727,8.28880759 L1.05301278,8.28880759 L1.05301278,14.5044493 L2.13859296,14.5044493 C2.68862299,14.5044493 3.15360852,14.3875333 3.53356349,14.1536978 C3.91351845,13.9198624 4.19938506,13.5881473 4.39117181,13.1585426 C4.58295861,12.7289379 4.67885058,12.2204894 4.67885058,11.6331817 L4.67885058,11.1437611 Z M6.67810475,12.3509986 C6.67810475,11.7818177 6.78666167,11.2706502 7.00377879,10.8174807 C7.22089592,10.3643112 7.53118779,10.0081253 7.9346638,9.74891242 C8.33813976,9.48969946 8.80764853,9.3600949 9.34320406,9.3600949 C9.88599687,9.3600949 10.3600288,9.48969946 10.7653141,9.74891242 C11.1705994,10.0081253 11.481796,10.3643112 11.6989131,10.8174807 C11.9160302,11.2706502 12.0245871,11.7818177 12.0245871,12.3509986 L12.0245871,12.4760727 C12.0245871,13.0452536 11.9160302,13.5555148 11.6989131,14.0068717 C11.481796,14.4582285 11.171504,14.813508 10.7680281,15.072721 C10.3645521,15.3319339 9.89323405,15.4615385 9.3540599,15.4615385 C8.8148857,15.4615385 8.34356768,15.3319339 7.94009172,15.072721 C7.53661571,14.813508 7.22541916,14.4582285 7.00649273,14.0068717 C6.7875663,13.5555148 6.67810475,13.0452536 6.67810475,12.4760727 L6.67810475,12.3509986 Z M7.69312219,12.4760727 C7.69312219,12.8748619 7.75554243,13.2392047 7.88038479,13.5691121 C8.00522714,13.8990195 8.19248785,14.1609475 8.44217252,14.3549041 C8.69185724,14.5488606 8.99581662,14.6458375 9.3540599,14.6458375 C9.70868452,14.6458375 10.0108346,14.5488606 10.2605193,14.3549041 C10.510204,14.1609475 10.6974647,13.8990195 10.8223071,13.5691121 C10.9471494,13.2392047 11.0095696,12.8748619 11.0095696,12.4760727 L11.0095696,12.3509986 C11.0095696,11.9522094 10.9462448,11.5878666 10.8195931,11.2579592 C10.6929414,10.9280519 10.5047761,10.6652175 10.2550914,10.4694483 C10.0054067,10.2736791 9.70144734,10.1757959 9.34320406,10.1757959 C8.98857945,10.1757959 8.68733395,10.2736791 8.43945859,10.4694483 C8.19158318,10.6652175 8.00522714,10.9280519 7.88038479,11.2579592 C7.75554243,11.5878666 7.69312219,11.9522094 7.69312219,12.3509986 L7.69312219,12.4760727 Z M15.8259044,9.3600949 C17.0815651,9.3600949 17.709386,10.0724667 17.709386,11.4972316 L17.709386,15.3527783 L16.6943685,15.3527783 L16.6943685,11.4863555 C16.6943685,11.0368114 16.5975719,10.7105343 16.4039758,10.5075143 C16.2103797,10.3044944 15.9181806,10.202986 15.5273698,10.202986 C15.2161686,10.202986 14.9366345,10.2881805 14.6887591,10.4585723 C14.4408838,10.628964 14.2445766,10.857358 14.0998319,11.1437611 L14.0998319,15.3527783 L13.0848144,15.3527783 L13.0848144,9.46885504 L14.0455529,9.46885504 L14.0781203,10.19211 C14.2916188,9.92745894 14.5467276,9.72262944 14.8434543,9.57761519 C15.140181,9.43260093 15.4676612,9.3600949 15.8259044,9.3600949 Z M23.5027429,14.0694087 C23.5027429,14.276054 23.5208357,14.4890405 23.5570219,14.7083745 C23.5932081,14.9277086 23.643868,15.1135053 23.7090031,15.2657702 L23.7090031,15.3527783 L22.6505624,15.3527783 C22.5890459,15.2113895 22.5420046,15.0065599 22.509437,14.7382835 C22.3067944,14.9558049 22.0634459,15.1307257 21.7793844,15.2630512 C21.4953228,15.3953767 21.1832216,15.4615385 20.8430714,15.4615385 C20.4522606,15.4615385 20.1057831,15.3845008 19.8036284,15.2304232 C19.5014738,15.0763455 19.2680763,14.8669844 19.1034292,14.6023334 C18.938782,14.3376824 18.8564597,14.044033 18.8564597,13.7213763 C18.8564597,13.3044604 18.964112,12.9509935 19.1794198,12.660965 C19.3947276,12.3709365 19.7004964,12.1525121 20.0967351,12.0056852 C20.4929738,11.8588583 20.9606733,11.7854459 21.4998474,11.7854459 L22.4877254,11.7854459 L22.4877254,11.3177773 C22.4877254,10.9588671 22.3818824,10.6769999 22.1701932,10.4721673 C21.958504,10.2673347 21.65364,10.1649199 21.2555919,10.1649199 C21.0131444,10.1649199 20.7960306,10.2075172 20.6042438,10.2927131 C20.412457,10.3779089 20.2631912,10.4921059 20.156442,10.6353075 C20.0496927,10.778509 19.9963189,10.9334907 19.9963189,11.100257 L18.9813014,11.100257 C18.9813014,10.8138539 19.0790027,10.5365184 19.2744081,10.268242 C19.4698135,9.9999657 19.7448244,9.78154127 20.099449,9.61296221 C20.4540736,9.44438319 20.8593529,9.3600949 21.3152988,9.3600949 C21.7495331,9.3600949 22.130387,9.43350725 22.457872,9.58033418 C22.785357,9.7271611 23.0413704,9.94830452 23.2259199,10.243771 C23.4104695,10.5392375 23.5027429,10.9008614 23.5027429,11.3286533 L23.5027429,14.0694087 Z M20.9896248,14.5914574 C21.2212163,14.5914574 21.4374256,14.5506727 21.6382589,14.4691022 C21.8390923,14.3875317 22.0118787,14.279679 22.1566235,14.1455408 C22.3013682,14.0114026 22.4117344,13.8663906 22.4877254,13.7105003 L22.4877254,12.4923868 L21.6626845,12.4923868 C21.0837055,12.4923868 20.6404314,12.5839257 20.3328488,12.7670061 C20.0252662,12.9500866 19.8714772,13.2210779 19.8714772,13.5799881 C19.8714772,13.772132 19.9149,13.9443338 20.0017468,14.0965988 C20.0885937,14.2488637 20.2152434,14.369405 20.3816999,14.4582262 C20.5481563,14.5470474 20.7507959,14.5914574 20.9896248,14.5914574 Z M27.369195,15.3527783 C27.1376034,15.4252854 26.878876,15.4615385 26.5930051,15.4615385 C26.1841012,15.4615385 25.8557165,15.3382782 25.6078411,15.091754 C25.3599657,14.8452298 25.2360299,14.4446339 25.2360299,13.8899545 L25.2360299,10.235614 L24.1667334,10.235614 L24.1667334,9.46885504 L25.2360299,9.46885504 L25.2360299,8.03865927 L26.2510474,8.03865927 L26.2510474,9.46885504 L27.3474834,9.46885504 L27.3474834,10.235614 L26.2510474,10.235614 L26.2510474,13.8953925 C26.2510474,14.1745449 26.3089444,14.3621543 26.4247402,14.4582262 C26.540536,14.5542981 26.6979436,14.6023334 26.8969676,14.6023334 C26.9729586,14.6023334 27.0561855,14.5959891 27.146651,14.5833004 C27.2371165,14.5706116 27.3094878,14.5570167 27.3637671,14.5425153 L27.369195,15.3527783 Z M33.048566,12.688155 L29.0753425,12.688155 C29.0861983,13.054316 29.1621882,13.3860311 29.3033143,13.6833103 C29.4444405,13.9805895 29.6443661,14.2153277 29.9030974,14.3875321 C30.1618286,14.5597365 30.4648834,14.6458375 30.8122707,14.6458375 C31.1524209,14.6458375 31.4464293,14.5769567 31.6943047,14.4391932 C31.94218,14.3014297 32.1638171,14.1038507 32.3592225,13.8464505 L32.9725753,14.324995 C32.7554582,14.6585278 32.4659731,14.9313317 32.1041112,15.1434151 C31.7422493,15.3554984 31.2935473,15.4615385 30.7579917,15.4615385 C30.2224362,15.4615385 29.7502135,15.3400909 29.3413096,15.097192 C28.9324057,14.8542932 28.616686,14.5171401 28.3941409,14.0857228 C28.1715959,13.6543054 28.060325,13.1648897 28.060325,12.6174609 L28.060325,12.3836267 C28.060325,11.7709415 28.1797376,11.2353032 28.4185665,10.7766956 C28.6573953,10.3180881 28.973115,9.96734023 29.3657352,9.72444134 C29.7583553,9.4815425 30.1790134,9.3600949 30.6277221,9.3600949 C31.1741336,9.3600949 31.6273588,9.48244886 31.9874113,9.72716038 C32.3474639,9.97187189 32.614333,10.3099313 32.7880267,10.7413486 C32.9617204,11.172766 33.048566,11.6712449 33.048566,12.2368005 L33.048566,12.688155 Z M32.0335485,11.7963219 C32.0045995,11.3359017 31.8806637,10.9507134 31.6617373,10.6407455 C31.4428108,10.3307776 31.0981425,10.1757959 30.6277221,10.1757959 C30.2224368,10.1757959 29.8850057,10.323527 29.6154186,10.6189935 C29.3458315,10.91446 29.1766637,11.332276 29.1079099,11.872454 L32.0335485,11.872454 L32.0335485,11.7963219 Z M43.907941,9.46885504 L42.2035801,15.3527783 L41.3839671,15.3527783 L39.9618571,10.9099268 L38.5723144,15.3527783 L37.7527014,15.3527783 L36.0483405,9.46885504 L37.0579301,9.46885504 L38.208645,13.8355744 L39.5710482,9.46885504 L40.3906612,9.46885504 L41.7747759,13.9334586 L42.9037793,9.46885504 L43.907941,9.46885504 Z M45.3318376,7.32628039 C45.5200058,7.32628039 45.6674624,7.38065993 45.7742116,7.48942061 C45.8809608,7.59818129 45.9343347,7.73594272 45.9343347,7.90270911 C45.9343347,8.06585015 45.8809608,8.20089259 45.7742116,8.3078406 C45.6674624,8.4147886 45.5200058,8.46826183 45.3318376,8.46826183 C45.1436695,8.46826183 44.9980223,8.4147886 44.8948916,8.3078406 C44.791761,8.20089259 44.7401964,8.06585015 44.7401964,7.90270911 C44.7401964,7.73594272 44.791761,7.59818129 44.8948916,7.48942061 C44.9980223,7.38065993 45.1436695,7.32628039 45.3318376,7.32628039 Z M44.8161871,15.3527783 L44.8161871,9.46885504 L45.8312046,9.46885504 L45.8312046,15.3527783 L44.8161871,15.3527783 Z M49.724796,15.3527783 C49.4932044,15.4252854 49.2344774,15.4615385 48.9486061,15.4615385 C48.5397022,15.4615385 48.2113177,15.3382782 47.9634422,15.091754 C47.7155671,14.8452298 47.591631,14.4446339 47.591631,13.8899545 L47.591631,10.235614 L46.5223346,10.235614 L46.5223346,9.46885504 L47.591631,9.46885504 L47.591631,8.03865927 L48.6066486,8.03865927 L48.6066486,9.46885504 L49.7030843,9.46885504 L49.7030843,10.235614 L48.6066486,10.235614 L48.6066486,13.8953925 C48.6066486,14.1745449 48.6645454,14.3621543 48.7803415,14.4582262 C48.896137,14.5542981 49.0535449,14.6023334 49.252569,14.6023334 C49.3285598,14.6023334 49.4117869,14.5959891 49.5022521,14.5833004 C49.5927179,14.5706116 49.6650891,14.5570167 49.7193683,14.5425153 L49.724796,15.3527783 Z M53.4121274,9.3600949 C54.6677882,9.3600949 55.2956091,10.0724667 55.2956091,11.4972316 L55.2956091,15.3527783 L54.2805915,15.3527783 L54.2805915,11.4863555 C54.2805915,11.0368114 54.1837952,10.7105343 53.9901988,10.5075143 C53.7966029,10.3044944 53.5044036,10.202986 53.1135927,10.202986 C52.8023917,10.202986 52.5228578,10.2881805 52.2749822,10.4585723 C52.0271067,10.628964 51.8307998,10.857358 51.6860549,11.1437611 L51.6860549,15.3527783 L50.6710378,15.3527783 L50.6710378,7 L51.6860549,7 L51.6860549,10.1649199 C51.8995534,9.90751962 52.1528528,9.70903437 52.4459612,9.56945818 C52.7390692,9.42988195 53.0611216,9.3600949 53.4121274,9.3600949 Z" id="Donate-with" fill="#97AAFF" fill-rule="nonzero"></path>
                                    </g>
                                </g>
                            </g>
                        </g>
                    </g>
                </g>
                <g id="Label/supported-currencies-(color)" transform="translate(8.000000, 50.000000)">
                    <g id="BTC" transform="translate(22.000000, 6.000000)">
                        <rect id="Rectangle" stroke-opacity="0.142209353" stroke="#9BA3AE" fill-opacity="0.155949519" fill="#F6F7FC" x="0" y="0" width="28" height="28" rx="4"></rect>
                        <g id="Currency/Large/Bitcoin-(alt)" transform="translate(5.000000, 5.000000)">
                            <g id="Currency/Large/Bitcoin">
                                <g id="item-ico-backup">
                                    <mask id="mask-4" fill="white">
                                        <use xlink:href="#path-3"></use>
                                    </mask>
                                    <use id="Mask" fill="#F7931A" xlink:href="#path-3"></use>
                                </g>
                                <g id="Group" transform="translate(1.520000, 1.520000)" fill="#FFFFFF">
                                    <g id="Shape-2" transform="translate(3.800000, 2.660000)">
                                        <path d="M6.43650717,4.23271035 C6.18002658,5.273368 4.49446471,4.77042738 3.94490275,4.64186005 L4.40915464,2.79449512 C4.94633289,2.92306245 6.7050963,3.14542069 6.43650717,4.23271035 L6.43650717,4.23271035 Z M6.16764286,7.21426039 C5.88694521,8.36003764 3.85931748,7.76383301 3.21206173,7.61181796 L3.71291439,5.57739811 C4.37227868,5.72941316 6.46072422,6.00999554 6.16764286,7.21426039 Z M8.34167367,4.23271035 C8.50046048,3.11011737 7.60883265,2.52550488 6.38752268,2.12794731 L6.76618931,0.608060219 L5.80135994,0.385965434 L5.43507703,1.87081266 C5.17859643,1.81232506 4.92211584,1.75383747 4.66563524,1.70720547 L5.03191815,0.222094785 L4.05498026,0 L3.67631362,1.52015055 C3.46854232,1.47325509 3.26104622,1.43821522 3.05327492,1.39131976 L1.72216264,1.08755311 L1.47779056,2.06972317 C1.47779056,2.06972317 2.19852306,2.22147477 2.17403081,2.23333036 C2.56480597,2.32685782 2.63800751,2.57240034 2.62589899,2.75945526 L2.19852306,4.489845 C2.22274011,4.50170059 2.25961608,4.50170059 2.29621685,4.52488486 C2.25961608,4.51329273 2.23512383,4.51329273 2.19852306,4.50170059 L1.61208513,6.92182241 C1.56337583,7.0387976 1.44118979,7.20240479 1.17260067,7.14418066 C1.1847092,7.15577279 0.464251896,6.98031001 0.464251896,6.98031001 L0,8.04441539 L1.25791074,8.32499777 C1.49017428,8.38348537 1.72216264,8.43011737 1.94204246,8.48860496 L1.56337583,10.0203476 L2.5282052,10.2424424 L2.90687183,8.72255534 C3.17546095,8.79263507 3.43194155,8.85112267 3.67631362,8.90961026 L3.29764699,10.4179052 L4.26247636,10.64 L4.64114299,9.10852077 C6.28982889,9.38910315 7.52324738,9.26027237 8.02410005,7.82232061 C8.42725893,6.6762799 7.98749928,6.02158768 7.10825517,5.58899024 C7.75551093,5.44856733 8.21948763,5.05127321 8.34167367,4.23271035 L8.34167367,4.23271035 Z" id="Shape"></path>
                                    </g>
                                </g>
                            </g>
                        </g>
                    </g>
                    <g id="BCH" transform="translate(56.000000, 6.000000)">
                        <rect id="Rectangle" stroke-opacity="0.142209353" stroke="#9BA3AE" fill-opacity="0.155949519" fill="#F6F7FC" x="0" y="0" width="28" height="28" rx="4"></rect>
                        <g id="Currency/Large/Bitcoin-Cash-(alt)" transform="translate(5.000000, 5.000000)">
                            <g id="item-ico-backup" stroke-width="1">
                                <mask id="mask-6" fill="white">
                                    <use xlink:href="#path-5"></use>
                                </mask>
                                <use id="Mask" fill="#2FCF6E" xlink:href="#path-5"></use>
                            </g>
                            <path d="M11.7565072,8.38088546 C11.5000266,9.41371862 9.81446471,8.9145595 9.26490275,8.78695885 L9.72915464,6.95348388 C10.2663329,7.08108453 12.0250963,7.30177091 11.7565072,8.38088546 L11.7565072,8.38088546 Z M11.4876429,11.3400178 C11.2069452,12.4771802 9.17931748,11.8854583 8.53206173,11.7345862 L9.03291439,9.71546278 C9.69227868,9.86633487 11.7807242,10.1448076 11.4876429,11.3400178 Z M11.7075227,6.2919477 L12.0861893,4.78348834 L11.1213599,4.56306344 L10.755077,6.0367464 C10.4985964,5.97869856 10.2421158,5.92065072 9.98563524,5.87436934 L10.3519182,4.4004249 L9.37498026,4.18 L8.99631362,5.68872084 C8.78854232,5.64217798 8.58104622,5.60740157 8.37327492,5.56085871 L7.04216264,5.25937602 L6.79779056,6.23416134 C6.79779056,6.23416134 7.51852306,6.38477195 7.49403081,6.3965384 C7.88480597,6.48936265 7.95800751,6.73305898 7.94589899,6.91870747 L7.51852306,8.63608676 C7.54274011,8.64785322 7.57961608,8.64785322 7.61621685,8.67086317 C7.57961608,8.65935819 7.55512383,8.65935819 7.51852306,8.64785322 L6.93208513,11.0497786 C6.88337583,11.1658743 6.76118979,11.3282514 6.49260067,11.270465 C6.5047092,11.28197 5.7842519,11.1078265 5.7842519,11.1078265 L5.32,12.1639311 L6.57791074,12.4424038 C6.81017428,12.5004516 7.04216264,12.546733 7.26204246,12.6047809 L6.88337583,14.1250067 L7.8482052,14.3454316 L8.22687183,12.8369722 C8.49546095,12.906525 8.75194155,12.9645729 8.99631362,13.0226207 L8.61764699,14.5195751 L9.58247636,14.74 L9.96114299,13.2200357 C11.6098289,13.4985084 12.8432474,13.3706463 13.3441001,11.9435062 C13.7472589,10.8060823 13.3074993,10.1563126 12.4282552,9.72696776 C13.0755109,9.58760065 13.5394876,9.19329372 13.6616737,8.38088546 C13.8204605,7.26673303 12.9288326,6.68651612 11.7075227,6.2919477 Z" id="Shape" fill="#FFFFFF" transform="translate(9.500000, 9.460000) rotate(-32.000000) translate(-9.500000, -9.460000) "></path>
                        </g>
                    </g>
                    <g id="ETH" transform="translate(90.000000, 6.000000)">
                        <rect id="Rectangle" stroke-opacity="0.142209353" stroke="#9BA3AE" fill-opacity="0.155949519" fill="#F6F7FC" x="0" y="0" width="28" height="28" rx="4"></rect>
                        <g id="Currency/Large/Ethereum-(alt)" transform="translate(5.000000, 5.000000)">
                            <g id="item-ico-backup">
                                <mask id="mask-8" fill="white">
                                    <use xlink:href="#path-7"></use>
                                </mask>
                                <use id="Mask" fill="#6B71D6" xlink:href="#path-7"></use>
                            </g>
                            <g id="path0" transform="translate(5.700000, 3.040000)" fill="#E9ECFF">
                                <path d="M3.93552661,0.311306829 C3.90794754,0.378009323 3.07455627,1.79216404 2.08354601,3.45388432 C1.09253576,5.11557023 0.273461124,6.49694072 0.26332726,6.52360797 C0.25016684,6.55828227 0.788553854,6.8967433 2.15115045,7.71036938 L4.05743903,8.84860739 L5.96318351,7.70975081 C7.33230931,6.89155418 7.86372504,6.55711386 7.85042859,6.52206154 C7.78156593,6.340683 4.07570039,0.189998328 4.03526695,0.189998328 C4.00799394,0.189998328 3.96310568,0.244569971 3.93552661,0.311306829 M0.267850092,7.34221698 C0.341303601,7.46912698 4.04169413,12.7304794 4.05716698,12.7299983 C4.08273968,12.7292079 7.86600346,7.32661526 7.85142305,7.31180394 C7.83757423,7.29788611 4.30129788,9.40260579 4.15377875,9.51253948 L4.06335612,9.57996363 L2.23242539,8.48756855 C1.22539819,7.886765 0.364291829,7.37094613 0.318859473,7.34135786 C0.24353562,7.29231898 0.239012789,7.29238771 0.267850092,7.34221698" id="Shape"></path>
                            </g>
                        </g>
                    </g>
                    <g id="XRP" transform="translate(124.000000, 6.000000)">
                        <rect id="Rectangle" stroke-opacity="0.142209353" stroke="#9BA3AE" fill-opacity="0.155949519" fill="#F6F7FC" x="0" y="0" width="28" height="28" rx="4"></rect>
                        <g id="Currency/Large/XRP-" transform="translate(5.000000, 5.000000)">
                            <g id="XRP">
                                <mask id="mask-10" fill="white">
                                    <use xlink:href="#path-9"></use>
                                </mask>
                                <use id="Mask" fill="#000000" xlink:href="#path-9"></use>
                                <path d="M12.6800283,5.5 L13.9809007,5.5 L11.2730488,8.30759255 C10.2926196,9.3240981 8.70313605,9.3240981 7.72482905,8.30759255 L5.01697715,5.5 L6.31784955,5.5 L8.3742042,7.6327517 C8.9959915,8.27576045 10.0018863,8.27576045 10.6215515,7.6327517 L12.6800283,5.5 Z M6.30087245,13.3094789 L5,13.3094789 L7.72482905,10.4827871 C8.7052582,9.46628155 10.2947418,9.46628155 11.2751709,10.4827871 L14,13.3094789 L12.6991275,13.3094789 L10.6257958,11.1576279 C10.0040085,10.5146192 8.99811365,10.5146192 8.3784485,11.1576279 L6.30087245,13.3094789 Z" id="Shape" fill="#FFFFFF" fill-rule="nonzero" mask="url(#mask-10)"></path>
                            </g>
                        </g>
                    </g>
                </g>
            </g>
        </g>
    </g>
</svg>